<svg xmlns="http://www.w3.org/2000/svg" xmlns:xlink="http://www.w3.org/1999/xlink" width="2000" zoomAndPan="magnify" viewBox="0 0 1500 1499.999933" height="2000" preserveAspectRatio="xMidYMid meet" version="1.0"><defs><g/><clipPath id="e387a7832c"><path d="M 239.828125 528.101562 L 1259.824219 528.101562 L 1259.824219 971.890625 L 239.828125 971.890625 Z M 239.828125 528.101562 " clip-rule="nonzero"/></clipPath><clipPath id="29cb036ff9"><path d="M 177.972656 629.851562 L 1286.40625 629.851562 L 1286.40625 821.757812 L 177.972656 821.757812 Z M 177.972656 629.851562 " clip-rule="nonzero"/></clipPath><clipPath id="ad82725f51"><path d="M 0.972656 0.851562 L 1109.40625 0.851562 L 1109.40625 192.757812 L 0.972656 192.757812 Z M 0.972656 0.851562 " clip-rule="nonzero"/></clipPath><clipPath id="abf22080a6"><rect x="0" width="1110" y="0" height="193"/></clipPath><clipPath id="1e758d752e"><rect x="0" width="526" y="0" height="282"/></clipPath><clipPath id="38c1b75a93"><rect x="0" width="435" y="0" height="336"/></clipPath></defs><rect x="-150" width="1800" fill="#ffffff" y="-149.999993" height="1799.99992" fill-opacity="1"/><rect x="-150" width="1800" fill="#ffffff" y="-149.999993" height="1799.99992" fill-opacity="1"/><g clip-path="url(#e387a7832c)"><path stroke-linecap="butt" transform="matrix(0.75, 0, 0, 0.75, 239.824889, 528.100999)" fill="none" stroke-linejoin="miter" d="M 0.00431401 0.000751983 L 1360.44714 0.000751983 L 1360.44714 591.719553 L 0.00431401 591.719553 Z M 0.00431401 0.000751983 " stroke="#000000" stroke-width="40" stroke-opacity="1" stroke-miterlimit="4"/></g><g clip-path="url(#29cb036ff9)"><g transform="matrix(1, 0, 0, 1, 177, 629)"><g clip-path="url(#abf22080a6)"><g clip-path="url(#ad82725f51)"><path fill="#ffffff" d="M 0.972656 0.851562 L 1109.691406 0.851562 L 1109.691406 192.757812 L 0.972656 192.757812 Z M 0.972656 0.851562 " fill-opacity="1" fill-rule="nonzero"/></g></g></g></g><g transform="matrix(1, 0, 0, 1, 263, 623)"><g clip-path="url(#1e758d752e)"><g fill="#000000" fill-opacity="1"><g transform="translate(0.767585, 202.449967)"><g><path d="M 1.8125 -149.0625 L 1.8125 -186.328125 L 132.796875 -186.328125 L 132.796875 -149.0625 L 88.53125 -149.0625 L 88.53125 0 L 46.078125 0 L 46.078125 -149.0625 Z M 1.8125 -149.0625 "/></g></g></g><g fill="#000000" fill-opacity="1"><g transform="translate(116.143042, 202.449967)"><g><path d="M 13.546875 0 L 13.546875 -115.859375 L 53.53125 -115.859375 L 53.53125 -99.140625 L 53.984375 -99.140625 C 54.273438 -99.742188 54.757812 -100.5 55.4375 -101.40625 C 56.113281 -102.3125 57.582031 -103.890625 59.84375 -106.140625 C 62.101562 -108.398438 64.515625 -110.429688 67.078125 -112.234375 C 69.640625 -114.046875 72.953125 -115.664062 77.015625 -117.09375 C 81.078125 -118.53125 85.21875 -119.25 89.4375 -119.25 C 93.800781 -119.25 98.085938 -118.644531 102.296875 -117.4375 C 106.515625 -116.226562 109.601562 -115.023438 111.5625 -113.828125 L 114.734375 -112.015625 L 98.015625 -78.140625 C 93.046875 -82.359375 86.117188 -84.46875 77.234375 -84.46875 C 72.421875 -84.46875 68.28125 -83.410156 64.8125 -81.296875 C 61.351562 -79.191406 58.90625 -76.632812 57.46875 -73.625 C 56.039062 -70.613281 55.023438 -68.050781 54.421875 -65.9375 C 53.828125 -63.832031 53.53125 -62.179688 53.53125 -60.984375 L 53.53125 0 Z M 13.546875 0 "/></g></g></g><g fill="#000000" fill-opacity="1"><g transform="translate(209.390677, 202.449967)"><g><path d="M 51.265625 -115.859375 L 51.265625 -60.75 C 51.265625 -49.3125 52.992188 -41.179688 56.453125 -36.359375 C 59.921875 -31.546875 65.796875 -29.140625 74.078125 -29.140625 C 82.359375 -29.140625 88.226562 -31.546875 91.6875 -36.359375 C 95.15625 -41.179688 96.890625 -49.3125 96.890625 -60.75 L 96.890625 -115.859375 L 136.859375 -115.859375 L 136.859375 -51.046875 C 136.859375 -31.765625 131.851562 -17.867188 121.84375 -9.359375 C 111.832031 -0.859375 95.910156 3.390625 74.078125 3.390625 C 52.242188 3.390625 36.320312 -0.859375 26.3125 -9.359375 C 16.300781 -17.867188 11.296875 -31.765625 11.296875 -51.046875 L 11.296875 -115.859375 Z M 51.265625 -115.859375 "/></g></g></g><g fill="#000000" fill-opacity="1"><g transform="translate(338.31375, 202.449967)"><g><path d="M 63.90625 -119.25 C 70.53125 -119.25 77.078125 -118.492188 83.546875 -116.984375 C 90.023438 -115.484375 94.847656 -113.976562 98.015625 -112.46875 L 102.765625 -110.21875 L 89.65625 -84.015625 C 80.625 -88.828125 72.039062 -91.234375 63.90625 -91.234375 C 59.394531 -91.234375 56.195312 -90.742188 54.3125 -89.765625 C 52.4375 -88.796875 51.5 -86.953125 51.5 -84.234375 C 51.5 -83.640625 51.570312 -83.039062 51.71875 -82.4375 C 51.863281 -81.832031 52.160156 -81.265625 52.609375 -80.734375 C 53.066406 -80.210938 53.484375 -79.757812 53.859375 -79.375 C 54.234375 -79 54.875 -78.585938 55.78125 -78.140625 C 56.6875 -77.691406 57.398438 -77.351562 57.921875 -77.125 C 58.453125 -76.894531 59.316406 -76.554688 60.515625 -76.109375 C 61.722656 -75.660156 62.628906 -75.320312 63.234375 -75.09375 C 63.835938 -74.863281 64.851562 -74.523438 66.28125 -74.078125 C 67.71875 -73.628906 68.8125 -73.328125 69.5625 -73.171875 C 74.226562 -71.816406 78.289062 -70.3125 81.75 -68.65625 C 85.21875 -67 88.867188 -64.738281 92.703125 -61.875 C 96.546875 -59.019531 99.519531 -55.40625 101.625 -51.03125 C 103.738281 -46.664062 104.796875 -41.703125 104.796875 -36.140625 C 104.796875 -9.785156 86.5 3.390625 49.90625 3.390625 C 41.625 3.390625 33.753906 2.109375 26.296875 -0.453125 C 18.847656 -3.015625 13.46875 -5.570312 10.15625 -8.125 L 5.1875 -12.203125 L 21.453125 -39.515625 C 22.660156 -38.460938 24.242188 -37.222656 26.203125 -35.796875 C 28.160156 -34.367188 31.695312 -32.410156 36.8125 -29.921875 C 41.925781 -27.441406 46.367188 -26.203125 50.140625 -26.203125 C 58.421875 -26.203125 62.5625 -28.984375 62.5625 -34.546875 C 62.5625 -37.109375 61.503906 -39.101562 59.390625 -40.53125 C 57.285156 -41.96875 53.710938 -43.585938 48.671875 -45.390625 C 43.628906 -47.203125 39.675781 -48.859375 36.8125 -50.359375 C 29.582031 -54.128906 23.859375 -58.382812 19.640625 -63.125 C 15.429688 -67.863281 13.328125 -74.148438 13.328125 -81.984375 C 13.328125 -93.722656 17.878906 -102.867188 26.984375 -109.421875 C 36.097656 -115.972656 48.40625 -119.25 63.90625 -119.25 Z M 63.90625 -119.25 "/></g></g></g><g fill="#000000" fill-opacity="1"><g transform="translate(430.206626, 202.449967)"><g><path d="M 20.328125 -115.859375 L 20.328125 -159 L 60.296875 -159 L 60.296875 -115.859375 L 84.6875 -115.859375 L 84.6875 -85.375 L 60.296875 -85.375 L 60.296875 -48.5625 C 60.296875 -37.863281 63.304688 -32.515625 69.328125 -32.515625 C 70.835938 -32.515625 72.421875 -32.816406 74.078125 -33.421875 C 75.734375 -34.023438 77.015625 -34.628906 77.921875 -35.234375 L 79.265625 -36.140625 L 89.203125 -3.84375 C 80.617188 0.976562 70.832031 3.390625 59.84375 3.390625 C 52.320312 3.390625 45.847656 2.070312 40.421875 -0.5625 C 35.003906 -3.195312 30.898438 -6.734375 28.109375 -11.171875 C 25.328125 -15.617188 23.332031 -20.285156 22.125 -25.171875 C 20.925781 -30.066406 20.328125 -35.300781 20.328125 -40.875 L 20.328125 -85.375 L 3.609375 -85.375 L 3.609375 -115.859375 Z M 20.328125 -115.859375 "/></g></g></g></g></g><g transform="matrix(1, 0, 0, 1, 781, 582)"><g clip-path="url(#38c1b75a93)"><g fill="#000000" fill-opacity="1"><g transform="translate(0.257505, 248.625089)"><g><path d="M 71.0625 46.15625 C 62.4375 46.15625 54.007812 45.132812 45.78125 43.09375 C 37.5625 41.0625 30.113281 37.847656 23.4375 33.453125 C 21.488281 32.316406 20.226562 30.929688 19.65625 29.296875 C 19.082031 27.671875 18.957031 26.082031 19.28125 24.53125 C 19.613281 22.988281 20.347656 21.609375 21.484375 20.390625 C 22.628906 19.171875 23.972656 18.394531 25.515625 18.0625 C 27.066406 17.738281 28.65625 17.984375 30.28125 18.796875 C 37.445312 23.191406 44.285156 26.203125 50.796875 27.828125 C 57.304688 29.460938 63.738281 30.28125 70.09375 30.28125 C 81.644531 30.28125 90.390625 27.1875 96.328125 21 C 102.273438 14.8125 105.25 5.859375 105.25 -5.859375 L 105.25 -33.453125 L 107.6875 -33.453125 C 105.25 -24.015625 100.082031 -16.523438 92.1875 -10.984375 C 84.289062 -5.453125 75.050781 -2.6875 64.46875 -2.6875 C 53.5625 -2.6875 44.117188 -5.164062 36.140625 -10.125 C 28.160156 -15.09375 22.015625 -22.050781 17.703125 -31 C 13.390625 -39.957031 11.234375 -50.300781 11.234375 -62.03125 C 11.234375 -70.820312 12.453125 -78.835938 14.890625 -86.078125 C 17.335938 -93.328125 20.878906 -99.515625 25.515625 -104.640625 C 30.160156 -109.765625 35.78125 -113.75 42.375 -116.59375 C 48.96875 -119.445312 56.332031 -120.875 64.46875 -120.875 C 75.21875 -120.875 84.5 -118.144531 92.3125 -112.6875 C 100.125 -107.238281 105.171875 -99.875 107.453125 -90.59375 L 105 -87.671875 L 105 -110.375 C 105 -113.632812 105.851562 -116.117188 107.5625 -117.828125 C 109.28125 -119.535156 111.6875 -120.390625 114.78125 -120.390625 C 118.03125 -120.390625 120.46875 -119.535156 122.09375 -117.828125 C 123.726562 -116.117188 124.546875 -113.632812 124.546875 -110.375 L 124.546875 -8.546875 C 124.546875 9.523438 120.023438 23.160156 110.984375 32.359375 C 101.953125 41.554688 88.644531 46.15625 71.0625 46.15625 Z M 68.125 -18.796875 C 75.78125 -18.796875 82.375 -20.546875 87.90625 -24.046875 C 93.445312 -27.546875 97.722656 -32.550781 100.734375 -39.0625 C 103.742188 -45.582031 105.25 -53.238281 105.25 -62.03125 C 105.25 -75.21875 101.910156 -85.675781 95.234375 -93.40625 C 88.566406 -101.132812 79.53125 -105 68.125 -105 C 60.644531 -105 54.132812 -103.25 48.59375 -99.75 C 43.0625 -96.25 38.789062 -91.285156 35.78125 -84.859375 C 32.769531 -78.429688 31.265625 -70.820312 31.265625 -62.03125 C 31.265625 -48.84375 34.597656 -38.335938 41.265625 -30.515625 C 47.941406 -22.703125 56.894531 -18.796875 68.125 -18.796875 Z M 68.125 -18.796875 "/></g></g></g><g fill="#000000" fill-opacity="1"><g transform="translate(127.730116, 248.625089)"><g><path d="M 55.921875 2.203125 C 47.785156 2.203125 40.5 0.613281 34.0625 -2.5625 C 27.632812 -5.738281 22.546875 -10.09375 18.796875 -15.625 C 15.054688 -21.164062 13.1875 -27.351562 13.1875 -34.1875 C 13.1875 -42.976562 15.425781 -49.894531 19.90625 -54.9375 C 24.382812 -59.988281 31.789062 -63.570312 42.125 -65.6875 C 52.457031 -67.800781 66.582031 -68.859375 84.5 -68.859375 L 95.484375 -68.859375 L 95.484375 -55.921875 L 84.734375 -55.921875 C 71.546875 -55.921875 61.164062 -55.3125 53.59375 -54.09375 C 46.03125 -52.875 40.742188 -50.796875 37.734375 -47.859375 C 34.722656 -44.929688 33.21875 -40.78125 33.21875 -35.40625 C 33.21875 -28.726562 35.535156 -23.273438 40.171875 -19.046875 C 44.804688 -14.816406 51.113281 -12.703125 59.09375 -12.703125 C 65.601562 -12.703125 71.34375 -14.25 76.3125 -17.34375 C 81.28125 -20.4375 85.1875 -24.664062 88.03125 -30.03125 C 90.882812 -35.40625 92.3125 -41.59375 92.3125 -48.59375 L 92.3125 -76.4375 C 92.3125 -86.53125 90.273438 -93.8125 86.203125 -98.28125 C 82.128906 -102.757812 75.453125 -105 66.171875 -105 C 60.472656 -105 54.773438 -104.265625 49.078125 -102.796875 C 43.378906 -101.335938 37.359375 -98.984375 31.015625 -95.734375 C 28.734375 -94.585938 26.773438 -94.21875 25.140625 -94.625 C 23.515625 -95.03125 22.210938 -95.882812 21.234375 -97.1875 C 20.265625 -98.488281 19.695312 -99.992188 19.53125 -101.703125 C 19.375 -103.421875 19.742188 -105.09375 20.640625 -106.71875 C 21.535156 -108.34375 22.957031 -109.644531 24.90625 -110.625 C 32.070312 -114.207031 39.15625 -116.8125 46.15625 -118.4375 C 53.15625 -120.0625 59.828125 -120.875 66.171875 -120.875 C 76.429688 -120.875 84.898438 -119.207031 91.578125 -115.875 C 98.253906 -112.539062 103.21875 -107.492188 106.46875 -100.734375 C 109.726562 -93.972656 111.359375 -85.300781 111.359375 -74.71875 L 111.359375 -8.546875 C 111.359375 -5.285156 110.582031 -2.757812 109.03125 -0.96875 C 107.488281 0.8125 105.253906 1.703125 102.328125 1.703125 C 99.234375 1.703125 96.867188 0.8125 95.234375 -0.96875 C 93.609375 -2.757812 92.796875 -5.285156 92.796875 -8.546875 L 92.796875 -27.59375 L 95 -27.59375 C 93.695312 -21.40625 91.210938 -16.113281 87.546875 -11.71875 C 83.878906 -7.320312 79.359375 -3.898438 73.984375 -1.453125 C 68.617188 0.984375 62.597656 2.203125 55.921875 2.203125 Z M 55.921875 2.203125 "/></g></g></g><g fill="#000000" fill-opacity="1"><g transform="translate(241.52744, 248.625089)"><g><path d="M 66.171875 2.203125 C 56.898438 2.203125 49.128906 0.535156 42.859375 -2.796875 C 36.585938 -6.140625 31.90625 -11.023438 28.8125 -17.453125 C 25.71875 -23.890625 24.171875 -31.75 24.171875 -41.03125 L 24.171875 -103.296875 L 7.8125 -103.296875 C 5.039062 -103.296875 2.921875 -103.988281 1.453125 -105.375 C -0.00390625 -106.757812 -0.734375 -108.671875 -0.734375 -111.109375 C -0.734375 -113.554688 -0.00390625 -115.429688 1.453125 -116.734375 C 2.921875 -118.035156 5.039062 -118.6875 7.8125 -118.6875 L 24.171875 -118.6875 L 24.171875 -146.765625 C 24.171875 -150.023438 25.066406 -152.507812 26.859375 -154.21875 C 28.648438 -155.925781 31.09375 -156.78125 34.1875 -156.78125 C 37.28125 -156.78125 39.679688 -155.925781 41.390625 -154.21875 C 43.097656 -152.507812 43.953125 -150.023438 43.953125 -146.765625 L 43.953125 -118.6875 L 74.71875 -118.6875 C 77.488281 -118.6875 79.601562 -118.035156 81.0625 -116.734375 C 82.53125 -115.429688 83.265625 -113.554688 83.265625 -111.109375 C 83.265625 -108.671875 82.53125 -106.757812 81.0625 -105.375 C 79.601562 -103.988281 77.488281 -103.296875 74.71875 -103.296875 L 43.953125 -103.296875 L 43.953125 -42.984375 C 43.953125 -33.703125 45.90625 -26.660156 49.8125 -21.859375 C 53.71875 -17.054688 60.066406 -14.65625 68.859375 -14.65625 C 71.953125 -14.65625 74.597656 -14.976562 76.796875 -15.625 C 78.992188 -16.28125 80.828125 -16.609375 82.296875 -16.609375 C 83.765625 -16.765625 84.984375 -16.273438 85.953125 -15.140625 C 86.929688 -14.003906 87.421875 -12.050781 87.421875 -9.28125 C 87.421875 -7.320312 87.054688 -5.53125 86.328125 -3.90625 C 85.597656 -2.28125 84.335938 -1.140625 82.546875 -0.484375 C 80.585938 0.160156 78.019531 0.769531 74.84375 1.34375 C 71.675781 1.914062 68.785156 2.203125 66.171875 2.203125 Z M 66.171875 2.203125 "/></g></g></g><g fill="#000000" fill-opacity="1"><g transform="translate(311.368611, 248.625089)"><g><path d="M 72.046875 2.203125 C 59.503906 2.203125 48.710938 -0.28125 39.671875 -5.25 C 30.640625 -10.21875 23.640625 -17.257812 18.671875 -26.375 C 13.710938 -35.488281 11.234375 -46.394531 11.234375 -59.09375 C 11.234375 -71.46875 13.675781 -82.253906 18.5625 -91.453125 C 23.445312 -100.648438 30.160156 -107.851562 38.703125 -113.0625 C 47.253906 -118.269531 57.144531 -120.875 68.375 -120.875 C 76.351562 -120.875 83.515625 -119.53125 89.859375 -116.84375 C 96.210938 -114.164062 101.628906 -110.300781 106.109375 -105.25 C 110.585938 -100.207031 114.003906 -94.101562 116.359375 -86.9375 C 118.722656 -79.769531 119.90625 -71.710938 119.90625 -62.765625 C 119.90625 -60.160156 119.171875 -58.242188 117.703125 -57.015625 C 116.242188 -55.796875 114.128906 -55.1875 111.359375 -55.1875 L 26.375 -55.1875 L 26.375 -68.125 L 106.71875 -68.125 L 102.8125 -64.953125 C 102.8125 -73.742188 101.507812 -81.191406 98.90625 -87.296875 C 96.300781 -93.398438 92.515625 -98.082031 87.546875 -101.34375 C 82.578125 -104.601562 76.347656 -106.234375 68.859375 -106.234375 C 60.554688 -106.234375 53.515625 -104.316406 47.734375 -100.484375 C 41.960938 -96.660156 37.609375 -91.367188 34.671875 -84.609375 C 31.742188 -77.859375 30.28125 -70.003906 30.28125 -61.046875 L 30.28125 -59.578125 C 30.28125 -44.609375 33.898438 -33.210938 41.140625 -25.390625 C 48.390625 -17.578125 58.691406 -13.671875 72.046875 -13.671875 C 77.578125 -13.671875 83.066406 -14.40625 88.515625 -15.875 C 93.972656 -17.34375 99.304688 -19.785156 104.515625 -23.203125 C 106.796875 -24.660156 108.867188 -25.347656 110.734375 -25.265625 C 112.609375 -25.191406 114.113281 -24.625 115.25 -23.5625 C 116.394531 -22.507812 117.171875 -21.207031 117.578125 -19.65625 C 117.984375 -18.113281 117.820312 -16.445312 117.09375 -14.65625 C 116.363281 -12.863281 114.941406 -11.316406 112.828125 -10.015625 C 107.453125 -6.109375 101.097656 -3.09375 93.765625 -0.96875 C 86.441406 1.144531 79.203125 2.203125 72.046875 2.203125 Z M 72.046875 2.203125 "/></g></g></g></g></g></svg>